<svg width="102" height="126" viewBox="0 0 102 126" fill="none" xmlns="http://www.w3.org/2000/svg">
<g filter="url(#filter0_d)">
<path fill-rule="evenodd" clip-rule="evenodd" d="M46.948 29.8262C40.2758 32.8016 39.113 42.1543 44.8395 46.7883C46.7819 48.3603 46.5799 48.676 43.1754 49.3901C38.2409 50.4246 37.3005 52.3859 41.0027 53.9214C42.9096 54.712 43.3012 55.086 43.7441 56.538C44.3917 58.6597 43.7313 64.3317 42.1331 70.3695C40.4658 76.6703 39.3066 79.4509 38.3472 79.4509C37.9002 79.4509 37.1507 80.0936 36.6754 80.8837C36.0589 81.91 35.2708 82.4771 33.8999 82.8802C29.706 84.1135 28.1247 87.7629 30.6942 90.2765C31.364 90.9318 32.311 91.6994 32.7983 91.9825C33.5548 92.4217 33.5872 92.5561 33.0197 92.9022C32.6543 93.1249 31.9567 93.5993 31.4694 93.9568C30.6034 94.5917 30.6123 94.6169 31.8543 95.0827C34.1125 95.9289 40.9836 96.3955 51.1809 96.3955C61.3781 96.3955 68.2493 95.9289 70.5074 95.0827C71.7495 94.6169 71.7583 94.5917 70.8924 93.9568C70.4051 93.5993 69.7075 93.1249 69.342 92.9022C68.7649 92.55 68.7795 92.4369 69.4554 92.039C74.3585 89.1524 74.1002 85.1046 68.8827 83.0759C67.2296 82.4332 66.2041 81.71 65.6469 80.7929C65.1982 80.0549 64.4748 79.4509 64.0399 79.4509C63.0561 79.4509 61.8548 76.4155 60.0807 69.4489C58.5167 63.3063 58.0312 58.882 58.6664 56.5663C59.0792 55.0608 59.4212 54.7251 61.3613 53.9205C65.1273 52.3585 64.1391 50.4772 58.9441 49.3188C57.5063 48.9983 56.2656 48.5473 56.1872 48.3168C56.1088 48.0863 56.612 47.5688 57.3052 47.167C59.0486 46.156 60.7921 43.5324 61.3449 41.0884C62.3145 36.8028 60.0745 32.0801 56.0946 30.0175C53.6269 28.739 49.5765 28.6542 46.948 29.8262ZM52.9527 32.0501C52.9527 32.7542 52.6573 32.9198 51.4024 32.9198C50.1475 32.9198 49.852 32.7542 49.852 32.0501C49.852 31.346 50.1475 31.1804 51.4024 31.1804C52.6573 31.1804 52.9527 31.346 52.9527 32.0501ZM52.6267 84.9754C52.0819 85.0785 51.0852 85.0811 50.4119 84.9815C49.7386 84.8815 50.1842 84.7971 51.4024 84.7937C52.6205 84.7906 53.1715 84.8724 52.6267 84.9754Z" fill="black"/>
</g>
<defs>
<filter id="filter0_d" x="0.451172" y="0" width="101.52" height="125.396" filterUnits="userSpaceOnUse" color-interpolation-filters="sRGB">
<feFlood flood-opacity="0" result="BackgroundImageFix"/>
<feColorMatrix in="SourceAlpha" type="matrix" values="0 0 0 0 0 0 0 0 0 0 0 0 0 0 0 0 0 0 127 0"/>
<feOffset/>
<feGaussianBlur stdDeviation="14.5"/>
<feColorMatrix type="matrix" values="0 0 0 0 1 0 0 0 0 0.768627 0 0 0 0 0.188235 0 0 0 1 0"/>
<feBlend mode="normal" in2="BackgroundImageFix" result="effect1_dropShadow"/>
<feBlend mode="normal" in="SourceGraphic" in2="effect1_dropShadow" result="shape"/>
</filter>
</defs>
</svg>
