<svg width="25" height="26" viewBox="0 0 25 26" fill="none" xmlns="http://www.w3.org/2000/svg">
<path d="M22.3282 20.4282C21.7139 19.8163 21.116 19.1868 20.5352 18.5404C20.0472 18.0249 19.7534 17.6498 19.7534 17.6498L16.0808 15.8261C17.5511 14.092 18.3626 11.8597 18.3631 9.54779C18.3631 4.28423 14.2445 0 9.18153 0C4.11857 0 0 4.28423 0 9.54779C0 14.8114 4.11857 19.0956 9.18153 19.0956C11.494 19.0956 13.6018 18.1954 15.219 16.7236L16.9727 20.5428C16.9727 20.5428 17.3334 20.8483 17.8292 21.3557C18.3368 21.8508 19.0045 22.5205 19.6445 23.2202L21.4258 25.1189L22.218 26L25 23.107L24.1527 22.2832C23.6556 21.7758 22.9919 21.102 22.3282 20.4282ZM9.18153 16.3676C5.56532 16.3676 2.62329 13.3083 2.62329 9.54779C2.62329 5.78733 5.56532 2.72794 9.18153 2.72794C12.7977 2.72794 15.7398 5.78733 15.7398 9.54779C15.7398 13.3083 12.7977 16.3676 9.18153 16.3676Z" fill="#F2F2F2"/>
</svg>
