<svg width="103" height="126" viewBox="0 0 103 126" fill="none" xmlns="http://www.w3.org/2000/svg">
<g filter="url(#filter0_d)">
<path fill-rule="evenodd" clip-rule="evenodd" d="M47.2 29.8262C40.5277 32.8016 39.365 42.1543 45.0915 46.7883C47.0339 48.3603 46.8319 48.676 43.4273 49.3901C38.4928 50.4246 37.5524 52.3859 41.2546 53.9214C43.1615 54.712 43.5531 55.086 43.9961 56.538C44.6437 58.6597 43.9832 64.3317 42.385 70.3695C40.7178 76.6703 39.5586 79.4509 38.5991 79.4509C38.1522 79.4509 37.4027 80.0936 36.9274 80.8837C36.3108 81.91 35.5228 82.4771 34.1518 82.8802C29.958 84.1135 28.3766 87.7629 30.9462 90.2765C31.6159 90.9318 32.563 91.6994 33.0502 91.9825C33.8068 92.4217 33.8391 92.5561 33.2717 92.9022C32.9063 93.1249 32.2086 93.5993 31.7214 93.9568C30.8554 94.5917 30.8642 94.6169 32.1063 95.0827C34.3645 95.9289 41.2356 96.3955 51.4328 96.3955C61.6301 96.3955 68.5012 95.9289 70.7594 95.0827C72.0014 94.6169 72.0103 94.5917 71.1443 93.9568C70.6571 93.5993 69.9594 93.1249 69.594 92.9022C69.0168 92.55 69.0314 92.4369 69.7074 92.039C74.6104 89.1524 74.3522 85.1046 69.1346 83.0759C67.4815 82.4332 66.4561 81.71 65.8988 80.7929C65.4501 80.0549 64.7268 79.4509 64.2918 79.4509C63.308 79.4509 62.1067 76.4155 60.3327 69.4489C58.7686 63.3063 58.2831 58.882 58.9183 56.5663C59.3312 55.0608 59.6731 54.7251 61.6133 53.9205C65.3793 52.3585 64.391 50.4772 59.1961 49.3188C57.7582 48.9983 56.5175 48.5473 56.4391 48.3168C56.3607 48.0863 56.8639 47.5688 57.5571 47.167C59.3006 46.156 61.0441 43.5324 61.5969 41.0884C62.5665 36.8028 60.3265 32.0801 56.3465 30.0175C53.8788 28.739 49.8285 28.6542 47.2 29.8262ZM53.2047 32.0501C53.2047 32.7542 52.9092 32.9198 51.6543 32.9198C50.3994 32.9198 50.104 32.7542 50.104 32.0501C50.104 31.346 50.3994 31.1804 51.6543 31.1804C52.9092 31.1804 53.2047 31.346 53.2047 32.0501ZM52.8786 84.9754C52.3338 85.0785 51.3372 85.0811 50.6639 84.9815C49.9906 84.8815 50.4362 84.7971 51.6543 84.7937C52.8724 84.7906 53.4235 84.8724 52.8786 84.9754Z" fill="white"/>
</g>
<defs>
<filter id="filter0_d" x="0.703125" y="0" width="101.52" height="125.396" filterUnits="userSpaceOnUse" color-interpolation-filters="sRGB">
<feFlood flood-opacity="0" result="BackgroundImageFix"/>
<feColorMatrix in="SourceAlpha" type="matrix" values="0 0 0 0 0 0 0 0 0 0 0 0 0 0 0 0 0 0 127 0"/>
<feOffset/>
<feGaussianBlur stdDeviation="14.5"/>
<feColorMatrix type="matrix" values="0 0 0 0 0.964706 0 0 0 0 0.741176 0 0 0 0 0.184314 0 0 0 1 0"/>
<feBlend mode="normal" in2="BackgroundImageFix" result="effect1_dropShadow"/>
<feBlend mode="normal" in="SourceGraphic" in2="effect1_dropShadow" result="shape"/>
</filter>
</defs>
</svg>
