<svg width="38" height="38" viewBox="0 0 38 38" fill="none" xmlns="http://www.w3.org/2000/svg">
<path d="M19 0C13.7552 0 9.27734 1.85547 5.56641 5.56641C1.85547 9.27734 0 13.7552 0 19C0 23.9479 1.66992 28.2279 5.00977 31.8398C8.34961 35.4518 12.4935 37.4557 17.4414 37.8516V38H20.5586V37.8516C25.1602 37.4557 29.1061 35.625 32.3965 32.3594C35.6868 29.0938 37.5052 25.1602 37.8516 20.5586H38V17.4414H37.8516C37.4557 12.4935 35.4518 8.34961 31.8398 5.00977C28.2279 1.66992 23.9479 0 19 0ZM20.5586 3.33984C23.6263 3.63672 26.4219 4.79948 28.9453 6.82812L25.6797 10.168C24.2448 9.07943 22.5378 8.38672 20.5586 8.08984V3.33984ZM17.4414 3.33984V8.08984C15.7096 8.23828 14.0026 8.93099 12.3203 10.168L9.05469 6.82812C11.3802 4.79948 14.1758 3.63672 17.4414 3.33984ZM6.82812 9.05469L10.168 12.3203C8.93099 14.0026 8.23828 15.7096 8.08984 17.4414H3.33984C3.48828 14.3242 4.65104 11.5286 6.82812 9.05469ZM3.33984 20.5586H8.08984C8.38672 22.1914 9.00521 23.7747 9.94531 25.3086L6.16016 28.2031C4.42839 25.7292 3.48828 23.181 3.33984 20.5586ZM17.4414 34.6602C14.0768 34.3633 11.0091 33.0026 8.23828 30.5781L12.0234 27.6836C13.5078 28.8711 15.2643 29.6133 17.293 29.9102V34.6602H17.4414ZM19 26.9414C16.7734 26.9414 14.8932 26.1745 13.3594 24.6406C11.8255 23.1068 11.0586 21.2266 11.0586 19C11.0586 16.7734 11.8255 14.8932 13.3594 13.3594C14.8932 11.8255 16.7734 11.0586 19 11.0586C21.2266 11.0586 23.1068 11.8255 24.6406 13.3594C26.1745 14.8932 26.9414 16.7734 26.9414 19C26.9414 21.2266 26.1745 23.1068 24.6406 24.6406C23.1068 26.1745 21.2266 26.9414 19 26.9414ZM20.5586 34.6602V29.9102C23.4284 29.6133 25.7044 28.3516 27.3867 26.125L31.1719 28.9453C28.401 32.4583 24.8633 34.3633 20.5586 34.6602ZM33.1016 26.2734L29.3164 23.4531C29.7122 22.1667 29.9596 21.2018 30.0586 20.5586H34.8086C34.5117 22.5872 33.9427 24.4922 33.1016 26.2734ZM29.9102 17.4414C29.6133 15.4622 28.9206 13.7552 27.832 12.3203L31.1719 9.05469C33.2005 11.5781 34.3633 14.3737 34.6602 17.4414H29.9102Z" fill="#E527AF"/>
</svg>
