<svg width="26" height="26" viewBox="0 0 26 26" fill="none" xmlns="http://www.w3.org/2000/svg">
<path d="M13 0C9.41146 0 6.34766 1.26953 3.80859 3.80859C1.26953 6.34766 0 9.41146 0 13C0 16.3854 1.14258 19.3138 3.42773 21.7852C5.71289 24.2565 8.54818 25.6276 11.9336 25.8984V26H14.0664V25.8984C17.2148 25.6276 19.9147 24.375 22.166 22.1406C24.4173 19.9062 25.6615 17.2148 25.8984 14.0664H26V11.9336H25.8984C25.6276 8.54818 24.2565 5.71289 21.7852 3.42773C19.3138 1.14258 16.3854 0 13 0ZM14.0664 2.28516C16.1654 2.48828 18.0781 3.28385 19.8047 4.67188L17.5703 6.95703C16.5885 6.21224 15.4206 5.73828 14.0664 5.53516V2.28516ZM11.9336 2.28516V5.53516C10.7487 5.63672 9.58073 6.11068 8.42969 6.95703L6.19531 4.67188C7.78646 3.28385 9.69922 2.48828 11.9336 2.28516ZM4.67188 6.19531L6.95703 8.42969C6.11068 9.58073 5.63672 10.7487 5.53516 11.9336H2.28516C2.38672 9.80078 3.18229 7.88802 4.67188 6.19531ZM2.28516 14.0664H5.53516C5.73828 15.1836 6.16146 16.2669 6.80469 17.3164L4.21484 19.2969C3.02995 17.6042 2.38672 15.8607 2.28516 14.0664ZM11.9336 23.7148C9.63151 23.5117 7.53255 22.5807 5.63672 20.9219L8.22656 18.9414C9.24219 19.7539 10.444 20.2617 11.832 20.4648V23.7148H11.9336ZM13 18.4336C11.4766 18.4336 10.1901 17.9089 9.14062 16.8594C8.09115 15.8099 7.56641 14.5234 7.56641 13C7.56641 11.4766 8.09115 10.1901 9.14062 9.14062C10.1901 8.09115 11.4766 7.56641 13 7.56641C14.5234 7.56641 15.8099 8.09115 16.8594 9.14062C17.9089 10.1901 18.4336 11.4766 18.4336 13C18.4336 14.5234 17.9089 15.8099 16.8594 16.8594C15.8099 17.9089 14.5234 18.4336 13 18.4336ZM14.0664 23.7148V20.4648C16.0299 20.2617 17.5872 19.3984 18.7383 17.875L21.3281 19.8047C19.4323 22.2083 17.0117 23.5117 14.0664 23.7148ZM22.6484 17.9766L20.0586 16.0469C20.3294 15.1667 20.4987 14.5065 20.5664 14.0664H23.8164C23.6133 15.4544 23.224 16.7578 22.6484 17.9766ZM20.4648 11.9336C20.2617 10.5794 19.7878 9.41146 19.043 8.42969L21.3281 6.19531C22.7161 7.92188 23.5117 9.83464 23.7148 11.9336H20.4648ZM15.1836 13C15.1836 13.6094 14.972 14.1257 14.5488 14.5488C14.1257 14.972 13.6094 15.1836 13 15.1836C12.3906 15.1836 11.8743 14.972 11.4512 14.5488C11.028 14.1257 10.8164 13.6094 10.8164 13C10.8164 12.3906 11.028 11.8743 11.4512 11.4512C11.8743 11.028 12.3906 10.8164 13 10.8164C13.6094 10.8164 14.1257 11.028 14.5488 11.4512C14.972 11.8743 15.1836 12.3906 15.1836 13Z" fill="#F2F2F2"/>
</svg>
