<svg width="1440" height="900" viewBox="0 0 1440 900" fill="none" xmlns="http://www.w3.org/2000/svg">
<path fill-rule="evenodd" clip-rule="evenodd" d="M949.024 399.25C1041.48 352.866 1159.09 349.688 1251.64 390.009C1342.1 429.422 1370.28 531.225 1427.38 607.659C1489.1 690.271 1609.87 752.847 1599.15 855.196C1588.42 957.648 1458.63 1007.41 1378.01 1079.29C1308.82 1140.98 1254.74 1229.63 1161.86 1245.13C1070.71 1260.33 989.19 1202.45 912.599 1156.92C849.023 1119.13 809.014 1061.64 761.379 1007.06C704.85 942.301 602.034 893.491 608.374 808.386C614.704 723.412 733.411 689.632 790.098 621.549C850.155 549.418 863.224 442.293 949.024 399.25Z" fill="url(#paint0_radial)"/>
<path fill-rule="evenodd" clip-rule="evenodd" d="M1111.02 -22.7499C1203.48 -69.1337 1321.09 -72.3121 1413.64 -31.9906C1504.1 7.42231 1532.28 109.225 1589.38 185.659C1651.1 268.271 1771.87 330.847 1761.15 433.196C1750.42 535.648 1620.63 585.406 1540.01 657.295C1470.82 718.984 1416.74 807.634 1323.86 823.126C1232.71 838.329 1151.19 780.451 1074.6 734.922C1011.02 697.129 971.014 639.636 923.379 585.063C866.85 520.301 764.034 471.491 770.374 386.386C776.704 301.412 895.411 267.632 952.098 199.549C1012.15 127.418 1025.22 20.2931 1111.02 -22.7499Z" fill="url(#paint1_radial)"/>
<path fill-rule="evenodd" clip-rule="evenodd" d="M1180.26 227.856C1180.44 228.21 1181.82 229.019 1183.31 229.655C1186.89 231.176 1187.17 231.939 1184.73 233.478C1183.56 234.218 1182.75 234.31 1182.8 233.698C1182.85 233.117 1182.13 233.043 1181.19 233.535C1179.65 234.344 1179.74 234.909 1182.18 239.553C1183.66 242.372 1185.29 244.7 1185.8 244.727C1186.32 244.755 1187.79 243.786 1189.08 242.575C1190.38 241.363 1191.65 240.434 1191.9 240.508C1192.16 240.584 1193.04 243.035 1193.86 245.955L1195.34 251.265L1188.66 255.896C1180.66 261.443 1175.23 266.48 1173.77 269.71C1171.15 275.494 1179.02 285.534 1195.24 297.126C1207.11 305.612 1212.11 312.715 1208.48 315.962C1207.29 317.028 1207.27 317.739 1208.4 319.135C1210.23 321.399 1209.1 324.478 1204.69 329.243C1202.91 331.172 1201.51 333.353 1201.59 334.089C1202.05 338.516 1209.04 340.41 1218.79 338.751L1223.81 337.897L1230.47 349.95C1237.43 362.553 1251.03 391.476 1256.42 405.165C1261.08 416.981 1261.94 423.549 1260.85 438.874C1259.94 451.658 1260.04 452.95 1262.31 458.021L1264.75 463.46L1261.32 471.419C1259.44 475.796 1257.6 481.462 1257.24 484.009C1256.58 488.63 1256.6 488.679 1263.39 502.164L1270.2 515.686L1275.41 516.028C1281.41 516.421 1292.68 514.358 1304.22 510.753C1315.55 507.214 1348.07 490.118 1358.32 482.314C1368.26 474.746 1375.85 467.059 1379.75 460.606L1383.02 455.198L1376.14 442.827C1369.58 431.031 1369.06 430.341 1365.06 427.937C1362.69 426.515 1356.85 424.648 1351.67 423.657L1342.49 421.9L1339.47 416.974C1336.84 412.674 1335.62 411.607 1329.84 408.577C1318.18 402.463 1310.07 396.774 1305.85 391.755C1300.48 385.357 1287.45 365.202 1275.06 344.114C1260.72 319.694 1259.91 318.067 1261.67 317.135C1263.9 315.944 1269.27 308.649 1270.62 304.956C1271.56 302.392 1271.47 301.07 1270.23 299.188C1268.79 297.013 1268.13 296.836 1264.14 297.575C1258.21 298.672 1254.8 297.82 1254.16 295.083C1253.78 293.43 1253.12 293.01 1251.11 293.152C1245.83 293.522 1243.52 287.671 1242.32 270.97C1241.29 256.647 1238.75 246.096 1235.35 241.954C1233.47 239.669 1232.4 239.28 1228.43 239.424C1225.86 239.517 1219.47 241.044 1214.24 242.818L1204.74 246.043L1201.32 241.977C1199.43 239.741 1197.99 237.609 1198.11 237.238C1198.24 236.868 1199.88 236.213 1201.78 235.782C1205.93 234.838 1205.98 234.206 1202.45 228.343C1200.22 224.651 1199.72 224.278 1197.86 224.953C1196.64 225.394 1196.15 225.93 1196.69 226.235C1197.23 226.541 1196.84 226.942 1195.75 227.204C1194.29 227.558 1193.91 227.262 1193.95 225.765C1193.97 224.729 1194.25 223.466 1194.56 222.96C1194.87 222.454 1194.89 221.597 1194.61 221.059C1194.25 220.368 1192 221.133 1187.01 223.645C1183.11 225.606 1180.07 227.501 1180.26 227.856ZM1227.81 244.627C1232.86 243.204 1234.27 243.66 1231.94 245.968C1231.17 246.723 1230.69 247.615 1230.87 247.95C1231.29 248.751 1230.98 248.958 1219.12 255.688C1213.54 258.857 1210 260.596 1211.26 259.552C1212.52 258.507 1213.94 255.992 1214.42 253.96C1215.6 248.974 1217.79 247.448 1227.81 244.627ZM1245.66 294.139C1248.53 296.468 1248.24 297.441 1243.64 300.749L1240.05 303.329L1238.85 300.087C1237.51 296.475 1237.98 295.107 1241.17 293.409C1242.82 292.535 1243.9 292.71 1245.66 294.139ZM1247.77 300.215C1246.87 301.251 1243.6 303.607 1240.51 305.449L1234.89 308.797L1239.7 304.911C1242.34 302.774 1245.61 300.419 1246.96 299.677C1249.41 298.332 1249.41 298.333 1247.77 300.215ZM1254.94 299.846C1257.01 300.663 1261.74 300.505 1265.31 299.497C1269.28 298.375 1269.35 299.692 1265.55 304.467C1260.54 310.765 1252.54 316.874 1242.55 322.026C1232.44 327.248 1232.44 326.661 1242.56 319.702C1250.4 314.309 1250.17 315.093 1245.79 308.781C1244.32 306.668 1244.42 306.456 1248.32 303.254C1250.54 301.424 1252.58 299.763 1252.84 299.563C1253.1 299.364 1254.04 299.492 1254.94 299.846ZM1212.2 322.818C1212.43 323.256 1212.23 323.821 1211.74 324.073C1211.26 324.326 1210.91 324.054 1210.96 323.469C1211.01 322.884 1211.22 322.319 1211.42 322.214C1211.62 322.108 1211.97 322.38 1212.2 322.818ZM1205.41 334.021C1205.19 334.989 1204.75 335.708 1204.43 335.617C1203.57 335.366 1203.94 333.245 1204.94 332.721C1205.49 332.433 1205.67 332.922 1205.41 334.021ZM1318.03 411.021C1319.6 410.078 1319.65 409.714 1318.34 408.853C1317.47 408.284 1316.82 407.638 1316.9 407.418C1316.97 407.198 1320.77 409.326 1325.33 412.148C1332.11 416.337 1333.63 417.646 1333.59 419.28C1333.47 424.354 1326.06 431.532 1314.88 437.403L1308.83 440.578L1306.58 436.287C1304.38 432.108 1304.39 431.787 1306.76 424.009C1308.1 419.617 1309.73 415.727 1310.39 415.364C1312.05 414.45 1313.47 411.305 1312.85 409.933C1312.57 409.305 1313.19 409.549 1314.24 410.474C1315.61 411.689 1316.67 411.841 1318.03 411.021ZM1339.21 432.941C1339.81 433.286 1339.99 433.895 1339.6 434.293C1339.21 434.691 1338.47 435.83 1337.96 436.824C1337.16 438.385 1337.72 438.282 1342.02 436.071C1344.76 434.663 1348.01 433.502 1349.22 433.493C1351.15 433.478 1351.27 433.328 1350.14 432.364C1347.58 430.171 1359.96 433.572 1363.45 436.018L1366.97 438.493L1365.84 441.036C1363.47 446.331 1350.69 457.131 1340.39 462.542C1336.16 464.768 1333.67 465.727 1334.13 464.96C1334.66 464.072 1334.53 463.667 1333.69 463.623C1332.35 463.551 1328.33 456.48 1328.81 455.04C1328.98 454.534 1328.81 452.605 1328.43 450.754C1327.93 448.251 1328.22 447.055 1329.58 446.084C1330.99 445.079 1331.05 444.756 1329.87 444.68C1328.81 444.612 1329.36 444.029 1331.62 442.821C1333.43 441.853 1335.28 440.416 1335.74 439.628C1336.57 438.195 1336.26 438.38 1329.29 443.522C1327.99 444.479 1326.25 445.058 1325.34 444.834C1324.03 444.51 1324.92 443.388 1329.97 438.981C1337.66 432.283 1337.84 432.164 1339.21 432.941ZM1374.92 455.673C1373.68 458.41 1370.33 461.793 1365.5 465.178C1363.13 466.834 1363.78 465.801 1368.27 460.743C1371.49 457.116 1374.24 453.829 1374.37 453.44C1374.49 453.052 1374.93 452.829 1375.33 452.946C1375.73 453.063 1375.54 454.291 1374.92 455.673ZM1274.34 507.409C1275.25 507.476 1275.62 507.725 1275.16 507.964C1274.71 508.202 1273.6 508.343 1272.69 508.277C1271.79 508.211 1271.42 507.962 1271.87 507.723C1272.33 507.485 1273.44 507.343 1274.34 507.409Z" fill="white" fill-opacity="0.7"/>
<path opacity="0.7" fill-rule="evenodd" clip-rule="evenodd" d="M1107.7 711.132L1104.35 723.779L1085.04 737.301C1074.42 744.738 1062.26 753.123 1058.03 755.933C1052.77 759.42 1049.8 763.188 1048.68 767.795C1047.78 771.509 1046.21 777.294 1045.19 780.65C1043.55 786.072 1046.46 798.237 1049.26 797.643C1049.76 797.537 1053.25 794.953 1057.02 791.9C1066.72 784.041 1067.84 784.509 1060.72 793.451C1056.09 799.266 1055.29 801.468 1057.52 802.295C1063.14 804.387 1068.99 801.651 1071.67 795.672L1074.35 789.689L1087.95 789.385C1095.43 789.217 1102.25 789.81 1103.1 790.701C1103.95 791.594 1097.68 802.729 1089.15 815.45C1068.44 846.355 1064.09 857.377 1066.4 873.141C1067.56 881.068 1070.24 889.074 1074.08 896.107C1082.42 911.379 1082.7 914.313 1076.57 922.171C1069.22 931.603 1068.12 939.82 1071.85 957.442L1075.04 972.455L1084.59 975.634C1099.67 980.651 1120.47 979.81 1152.76 972.879C1175.22 968.058 1184.28 965.215 1195.99 959.321C1217.38 948.556 1219.57 945.468 1216.91 929.905C1213.66 910.89 1211.18 906.236 1200.74 899.558C1194.35 895.47 1190.96 891.809 1190.16 888.153C1189.05 883.089 1189.5 882.659 1197.62 880.937L1206.25 879.106L1199.97 869.68C1195.22 862.55 1192.7 855.72 1189.62 841.651C1185.98 824.98 1185.84 819.9 1188.28 792.759C1190.52 767.815 1190.43 759.69 1187.74 746.727C1184.85 732.86 1183.38 729.603 1175.35 719.39C1170.33 713.013 1165.81 705.817 1165.3 703.397C1164.55 699.85 1163.59 699.387 1160.35 701.007C1157.87 702.25 1153.84 701.93 1149.78 700.169C1141.79 696.696 1126.39 695.23 1117.56 697.102C1111.58 698.371 1110.76 699.531 1107.7 711.132ZM1102.92 943.263C1119.12 943.132 1127.34 945.039 1118.46 946.865C1105.25 949.583 1075.37 946.127 1074.45 941.778C1074.22 940.699 1076.96 940.621 1080.54 941.604C1084.11 942.588 1094.19 943.333 1102.92 943.263Z" fill="white"/>
<path fill-rule="evenodd" clip-rule="evenodd" d="M178.024 249.25C270.483 202.866 388.088 199.688 480.638 240.009C571.102 279.422 599.284 381.225 656.384 457.659C718.098 540.271 838.866 602.847 828.15 705.196C817.424 807.648 687.626 857.406 607.006 929.295C537.824 990.984 483.737 1079.63 390.856 1095.13C299.708 1110.33 218.19 1052.45 141.599 1006.92C78.0232 969.129 38.0142 911.636 -9.6212 857.063C-66.1497 792.301 -168.966 743.491 -162.626 658.386C-156.296 573.412 -37.5885 539.632 19.0976 471.549C79.1549 399.418 92.224 292.293 178.024 249.25Z" fill="url(#paint2_radial)"/>
<path fill-rule="evenodd" clip-rule="evenodd" d="M135.024 316.25C227.483 269.866 345.088 266.688 437.638 307.009C528.102 346.422 556.284 448.225 613.384 524.659C675.098 607.271 795.866 669.847 785.15 772.196C774.424 874.648 644.626 924.406 564.006 996.295C494.824 1057.98 440.737 1146.63 347.856 1162.13C256.708 1177.33 175.19 1119.45 98.5987 1073.92C35.0232 1036.13 -4.98581 978.636 -52.6212 924.063C-109.15 859.301 -211.966 810.491 -205.626 725.386C-199.296 640.412 -80.5885 606.632 -23.9024 538.549C36.1549 466.418 49.224 359.293 135.024 316.25Z" fill="url(#paint3_radial)"/>
<path fill-rule="evenodd" clip-rule="evenodd" d="M729.024 -387.75C821.483 -434.134 939.088 -437.312 1031.64 -396.991C1122.1 -357.578 1150.28 -255.775 1207.38 -179.341C1269.1 -96.7287 1389.87 -34.1533 1379.15 68.1956C1368.42 170.648 1238.63 220.406 1158.01 292.295C1088.82 353.984 1034.74 442.634 941.856 458.126C850.708 473.329 769.19 415.451 692.599 369.922C629.023 332.129 589.014 274.636 541.379 220.063C484.85 155.301 382.034 106.491 388.374 21.3865C394.704 -63.5883 513.411 -97.3682 570.098 -165.451C630.155 -237.582 643.224 -344.707 729.024 -387.75Z" fill="url(#paint4_radial)"/>
<path fill-rule="evenodd" clip-rule="evenodd" d="M-3.97612 14.2501C88.4831 -32.1337 206.088 -35.3121 298.638 5.00944C389.102 44.4223 417.284 146.225 474.384 222.659C536.098 305.271 656.866 367.847 646.15 470.196C635.424 572.648 505.626 622.406 425.006 694.295C355.824 755.984 301.737 844.634 208.856 860.126C117.708 875.329 36.1899 817.451 -40.4013 771.922C-103.977 734.129 -143.986 676.636 -191.621 622.063C-248.15 557.301 -350.966 508.491 -344.626 423.386C-338.296 338.412 -219.589 304.632 -162.902 236.549C-102.845 164.418 -89.776 57.2931 -3.97612 14.2501Z" fill="url(#paint5_radial)"/>
<path fill-rule="evenodd" clip-rule="evenodd" d="M75.7666 300.597C56.5321 322.455 67.8486 358.76 96.2913 366.441C105.939 369.047 105.732 370.538 94.5818 378.733C78.4207 390.609 78.27 399.361 94.2335 398.955C102.455 398.744 104.495 399.48 108.511 404.097C114.38 410.842 121.405 432.787 125.64 457.61C130.061 483.515 130.478 495.639 127.002 497.208C125.382 497.939 123.734 501.529 123.324 505.213C122.794 509.996 120.88 513.371 116.582 517.096C103.435 528.492 103.765 544.502 117.248 549.546C120.763 550.861 125.469 552.136 127.704 552.38C131.175 552.759 131.515 553.2 130.034 555.401C129.08 556.818 127.34 559.704 126.168 561.816C124.084 565.568 124.158 565.646 129.432 565.328C139.019 564.748 164.689 555.227 201.636 538.55C238.583 521.872 262.704 508.918 269.481 502.112C273.207 498.368 273.198 498.26 269.006 497.341C266.647 496.823 263.331 496.219 261.638 495.998C258.961 495.646 258.827 495.206 260.615 492.637C273.587 473.999 265.93 459.532 243.657 460.603C236.601 460.942 231.685 459.959 228.143 457.497C225.292 455.516 221.668 454.477 220.092 455.188C216.527 456.797 207.135 447.596 189.14 424.871C173.273 404.834 164.168 389.353 162.625 379.796C161.621 373.583 162.302 371.788 167.996 365.656C179.047 353.751 172.343 348.447 151.597 352.682C145.855 353.854 140.611 354.224 139.944 353.505C139.277 352.785 140.241 350.059 142.086 347.447C146.724 340.876 148.685 328.374 146.63 318.48C143.027 301.129 127.069 287.421 109.224 286.342C98.1605 285.675 83.3443 291.988 75.7666 300.597ZM101.216 298.958C102.385 301.547 101.589 302.64 97.0425 304.692C92.4957 306.745 91.1501 306.619 89.9811 304.029C88.8121 301.439 89.6075 300.346 94.1542 298.294C98.701 296.242 100.047 296.368 101.216 298.958ZM187.912 494.176C186.11 495.446 182.503 497.086 179.898 497.821C177.292 498.554 178.767 497.515 183.175 495.51C187.583 493.507 189.715 492.906 187.912 494.176Z" fill="white" fill-opacity="0.7"/>
<path fill-rule="evenodd" clip-rule="evenodd" d="M395.747 603.934C391.658 603.764 389.686 605.258 386.926 610.618C383.96 616.372 380.241 618.746 364.535 624.9C334.014 636.856 324.728 645.31 324.311 661.52C324.122 668.851 317.922 679.41 315.119 677.176C314.138 676.395 312.106 677.298 310.603 679.184C308.843 681.392 305.346 681.726 300.781 680.124C291.329 676.808 288.616 682.312 293.873 694.14L297.932 703.271L279.745 724.147C260.107 746.687 251.784 752.89 232.055 759.709C225.057 762.124 217.653 766.21 215.601 768.783C213.08 771.947 207.194 773.947 197.416 774.957L182.96 776.451L171.8 790.451C160.788 804.267 160.686 804.543 163.912 811.76C175.773 838.273 223.765 876.905 255.785 885.708L267.269 888.867L277.93 875.492C288.582 862.129 288.59 862.108 287.392 846.981C286.732 838.655 287.334 830.412 288.729 828.662C290.124 826.912 292.183 818.301 293.303 809.525C296.113 787.544 301.14 775.996 318.439 751.809L333.317 731.01L343.228 732.962C355.964 735.471 360.454 731.886 355.137 723.451C352.933 719.955 352.083 715.899 353.247 714.439C354.412 712.977 355.144 709.829 354.875 707.445C354.25 701.909 358.138 697.848 368.377 693.346C381.319 687.656 388.093 675.019 391.854 649.559C394.336 632.74 396.167 627.063 400.207 623.659C403.945 620.508 405.177 617.52 404.654 612.888C403.798 605.305 402.723 604.224 395.747 603.934ZM385.645 670.17C383.228 677.72 378.533 680.209 372.163 677.31C364.285 673.725 363.82 666.749 371.024 660.211C374.32 657.219 378.507 654.95 380.33 655.171C385.047 655.736 387.787 663.47 385.645 670.17ZM349.634 728.031C346.777 728.306 324.21 717.122 320.297 713.493C319.304 712.571 323.707 713.593 330.082 715.765C342.71 720.066 354.638 727.552 349.634 728.031ZM282.582 816.434C285.583 821.507 285.424 822.314 281.334 822.774C275.481 823.435 253.7 812.432 250.675 807.285C248.633 803.812 249.102 803.461 255.775 803.465C270.113 803.468 276.829 806.717 282.582 816.434ZM276.155 862.927C274.608 864.868 259.639 859.306 248.865 852.787C233.442 843.457 240.579 843.445 259.198 852.767C277.395 861.881 277.119 861.717 276.155 862.927Z" fill="white" fill-opacity="0.7"/>
<path fill-rule="evenodd" clip-rule="evenodd" d="M799.229 78.0526C800.471 79.4748 801.655 80.6694 801.861 80.7071C802.067 80.7451 804.753 78.4787 807.831 75.6705C813.81 70.2155 814.512 69.849 815.695 71.5616C816.25 72.3646 816.016 72.6457 811.177 76.9736L806.073 81.5384L806.118 83.7076C806.161 85.8051 806.235 85.9491 808.349 88.057C811.511 91.21 816.109 94.6502 818.98 96.0118C821.233 97.0802 821.647 97.1079 823.285 96.2965C824.282 95.8023 829.473 91.9948 834.82 87.8352C845.831 79.2697 845.53 79.6607 844.869 74.7663C844.685 73.4024 844.776 72.2744 845.072 72.2592C846.025 72.2105 847.58 69.6676 847.434 68.3934C847.326 67.449 847.68 66.8191 848.933 65.7272C850.296 64.539 850.625 63.8697 850.88 61.765L851.188 59.2329L857.456 54.9035C873.469 43.8434 903.886 28.6945 936.807 15.3829C947.713 10.9735 951.124 9.86119 955.663 9.23549C958.56 8.83609 958.965 8.651 961.765 6.44617L964.763 4.08418L967.621 4.66216C972.158 5.57956 976.961 5.56238 979.825 4.61877C982.608 3.70194 982.951 3.48611 994.17 -4.39846L1001.27 -9.38692L1001.61 -11.9713C1002.41 -18.1694 998.29 -31.5057 991.529 -44.5687C987.838 -51.7013 977.846 -66.8375 972.658 -73.1566C966.746 -80.3575 960.337 -87.1474 955.415 -91.4259C950.561 -95.6448 942.679 -100.318 938.646 -101.368L936.08 -102.036L932.152 -99.0239C927.967 -95.8149 927.989 -95.8307 922.022 -91.78C915.241 -87.1778 913.346 -84.3088 911.984 -76.5821L911.245 -72.3897L908.134 -70.5763C905.068 -68.7894 904.986 -68.6992 902.466 -64.3875C898.558 -57.7 887.817 -45.4262 871.682 -29.2065C854.123 -11.5556 841.46 -0.329139 828.627 8.96292L819.125 15.8439L817.256 15.6656C816.228 15.5679 814.667 15.8169 813.788 16.2197C812.908 16.6225 811.336 16.8242 810.294 16.6684C809.253 16.5126 807.854 16.5927 807.186 16.8465C806.328 17.1722 805.214 16.9396 803.394 16.0546C801.976 15.3656 800.28 14.8611 799.625 14.9344C798.194 15.0942 776.689 28.4967 776.842 29.1335C776.898 29.3647 776.554 29.8227 776.078 30.152C774.341 31.3525 774.805 35.3582 777.523 42.6307C779.833 48.8139 780.218 49.4131 782.477 50.3314C784.441 51.1297 784.86 50.9763 791.401 47.0581C795.867 44.3835 796.681 44.0531 797.148 44.7277C798.087 46.0861 797.198 46.866 790.558 50.5143C784.884 53.6323 784.088 54.1724 783.935 55.0106C783.793 55.7901 784.964 57.7383 790.367 65.7149C794 71.0787 797.988 76.6304 799.229 78.0526ZM788.978 34.546C789.451 34.8424 790.07 35.4336 790.356 35.8594C790.773 36.4821 790.685 36.4874 789.905 35.8875C788.58 34.8669 787.884 33.8592 788.978 34.546ZM800.428 47.7237C801.357 47.8936 810.093 59.6607 810.683 61.5361C810.974 62.464 809.51 60.6992 805.864 55.7268C802.982 51.7992 800.415 48.361 800.158 48.087C799.809 47.7144 799.877 47.6227 800.428 47.7237ZM807.427 28.8745C807.752 28.6495 809.35 29.8957 810.988 31.6523C811.917 32.6486 812.368 33.389 812.141 33.5459C811.935 33.6878 810.857 32.8399 809.744 31.6623C808.631 30.4843 807.609 29.4064 807.473 29.2673C807.337 29.1279 807.316 28.951 807.427 28.8745ZM819.973 27.8773C820.701 28.0256 825.669 33.5741 827.476 36.2572C828.54 37.8377 828.601 38.0733 827.813 37.5516C825.77 36.1995 818.839 27.6456 819.973 27.8773ZM823.763 24.3796C824.639 23.7742 831.916 31.9358 832.083 33.7106C832.167 34.6052 832.108 34.6596 831.496 34.2427C829.283 32.7337 823.095 24.8412 823.763 24.3796ZM913.259 -62.0733C913.157 -62.4951 913.41 -63.0733 913.822 -63.3581C915.286 -64.3701 922.698 -58.9848 928.333 -52.8149C931.248 -49.623 936.183 -42.5974 936.223 -41.5809C936.297 -39.7048 929.423 -43.1224 924.886 -47.2164C921.388 -50.3733 913.723 -60.1681 913.259 -62.0733ZM921.242 -85.168C921.684 -86.1784 925.883 -84.609 930.075 -81.8663C932.848 -80.0521 938.143 -75.5678 941.617 -72.0919C947.077 -66.629 952.072 -59.7765 951.089 -59.0972C950.894 -58.9625 949.646 -59.519 948.317 -60.3338C945.959 -61.7795 943.75 -63.848 933.925 -73.8145C931.289 -76.4881 927.42 -79.931 925.327 -81.4655C920.752 -84.8185 920.994 -84.5992 921.242 -85.168Z" fill="white" fill-opacity="0.7"/>
<path fill-rule="evenodd" clip-rule="evenodd" d="M304.166 117.134C304.258 113.441 301.163 109.448 297.572 108.627C294.321 107.883 293.618 107.116 294.59 105.373C294.956 104.716 295.563 101.877 295.938 99.065L296.621 93.9508L301.661 90.7885C304.434 89.0497 306.807 87.4346 306.935 87.2001C307.868 85.4794 306.644 83.6301 302.844 81.0191C299.164 78.4888 298.724 77.9255 299.302 76.4827C299.665 75.5756 301.384 73.91 303.123 72.7802C305.606 71.1663 306.23 70.4087 306.031 69.2506C305.591 66.6861 303.862 66.5092 295.794 68.2069C287.712 69.9073 283.539 71.8351 283.193 74.029C283.083 74.7296 282.8 74.9158 282.55 74.4529C282.305 73.9979 282.592 72.7766 283.189 71.7391C284.016 70.3004 286.236 69.3748 292.53 67.843C297.072 66.7383 300.602 65.7272 300.377 65.5976C300.152 65.4676 297.695 65.4659 294.916 65.5933C281.759 66.1975 267.676 64.1885 255.765 60.0096C249.537 57.8243 249.09 57.5595 248.487 55.6914C247.917 53.9256 247.468 53.6234 244.514 53.0127C239.803 52.039 236.472 48.4736 237.113 45.0919C237.658 42.215 236.034 40.1192 233.191 40.0298C231.4 39.9739 231.073 39.5822 230.487 36.7815C230.119 35.0299 230.144 31.7327 230.541 29.455C230.938 27.1768 231.475 23.5951 231.733 21.4957L232.204 17.6794L228.783 16.1907C226.223 15.0772 224.405 14.9415 221.561 15.6512C217.413 16.6868 209.537 21.7639 203.772 27.1194L200.109 30.5218L178.991 17.7401C155.722 3.65598 140.697 -6.09959 125.661 -16.8884C105.188 -31.5785 100.434 -36.7575 90.0926 -55.6398C79.3052 -75.336 78.4328 -76.506 70.793 -81.5328L64.2321 -85.8502L62.0627 -97.5893C58.2588 -118.176 55.4834 -122.604 41.9939 -129.607C32.6553 -134.455 34.3854 -133.459 25.4447 -139.143C16.9083 -144.571 16.8188 -144.578 9.28044 -140.422C0.627228 -135.652 -12.5732 -123.033 -24.2543 -108.364C-32.5688 -97.9218 -51.611 -65.7604 -57.969 -51.4183C-63.9484 -37.9325 -68.1404 -26.0766 -70.1916 -16.8513C-71.9315 -9.02658 -72.6944 3.63077 -71.759 9.1609L-71.1027 13.0388L-65.1516 16.4674C-61.8785 18.3531 -58.3763 19.9219 -57.3696 19.9531C-56.0732 19.9935 -54.6499 20.8116 -52.5002 22.75C-48.1878 26.6401 -36.4267 31.7742 -30.6031 32.3089C-25.4515 32.7822 -17.4204 30.8023 -4.91794 25.978L3.82042 22.6052L9.50345 25.8383C16.559 29.8528 18.9019 30.2814 29.8369 29.5611C50.4544 28.2034 62.4551 28.993 72.7179 32.3829C89.8639 38.0454 140.653 62.3142 167.018 77.4409L172.308 80.4765L171.312 84.2006C170.105 88.714 169.471 97.7981 170.051 102.276C170.782 107.921 175.299 113.009 179.013 112.371C179.884 112.221 181.676 110.986 182.996 109.625C186.84 105.663 190.351 103.331 193.722 102.501C196.155 101.902 196.942 102.025 197.217 103.047C197.412 103.771 198.322 104.796 199.239 105.325C200.53 106.069 201.511 105.803 203.576 104.156C205.962 102.25 206.662 102.148 210.197 103.193C213.113 104.054 214.237 104.684 214.483 105.596C214.979 107.442 217.733 108.729 218.995 107.705C219.936 106.941 220.823 107.309 224.937 110.167C231.887 114.992 239.465 123.132 245.707 132.472L251.133 140.593L250.26 136.718C249.78 134.586 249.215 132.597 249.002 132.297C248.316 131.324 249.637 129.909 251.028 130.128C253.26 130.48 255.102 131.834 254.58 132.74C254.311 133.207 254.639 135.706 255.308 138.292L256.526 142.996L254.444 141.818L252.362 140.64L253.892 145.839C255.092 149.915 255.679 150.902 256.608 150.415C258.407 149.47 259.657 146.889 259.796 143.837C259.978 139.845 260.791 139.705 263.339 143.228C265.797 146.627 268.706 148.719 269.371 147.565C269.601 147.167 269.896 144.831 270.028 142.375C270.419 135.095 273.125 132.026 277.122 134.329C279.79 135.866 283.317 136.319 283.957 135.207C284.252 134.695 284.006 132.57 283.411 130.486C282.724 128.083 282.709 126.043 283.369 124.912C285.08 121.984 286.26 121.771 288.416 123.998C290.353 126.001 291.492 126.459 295.216 126.736C299.461 127.051 304.041 122.136 304.166 117.134ZM296.845 123.767C293.755 124.852 291.996 123.376 292.84 120.404C293.825 116.935 298.788 116.985 299.726 120.473C300.218 122.304 299.868 122.705 296.845 123.767ZM276.682 128.418C274.358 129.934 271.001 131.526 269.222 131.954C266.061 132.716 265.952 132.68 264.444 130.331L262.9 127.927L267.747 120.491C270.413 116.401 272.397 112.941 272.156 112.802C270.986 112.128 266.234 112.415 264.908 113.242C262.73 114.597 260.913 118.131 260.769 121.292C260.65 123.911 260.563 124.023 258.979 123.59C258.063 123.339 257.149 123.421 256.948 123.77C256.191 125.084 254.485 120.119 254.714 117.264C255.189 111.302 260.255 108.525 268.231 109.856C271.618 110.422 272.658 110.245 273.32 108.993C273.983 107.74 274.545 107.645 276.077 108.528C277.135 109.138 278.271 109.41 278.601 109.135C279.237 108.603 280.716 109.041 282.637 110.331C283.278 110.761 283.722 112.67 283.625 114.573C283.529 116.476 283.72 118.765 284.052 119.658C284.837 121.774 282.371 124.705 276.682 128.418ZM263.447 134.763C262.231 134.561 261.514 134.06 261.486 133.394C261.433 132.17 263.194 131.939 264.965 132.939C266.723 133.931 265.717 135.14 263.447 134.763ZM269.557 102.011C268.126 99.7132 267.738 95.3222 268.8 93.4772C270.125 91.1782 273.313 92.9255 272.61 95.5645C271.883 98.2847 271.648 98.5103 270.327 97.7493C269.352 97.1873 269.274 97.637 269.927 100.064C270.886 103.63 270.811 104.025 269.557 102.011ZM209.294 98.4739C206.531 98.2152 204.162 97.6069 204.032 97.1231C203.823 96.3445 207.139 87.2261 208.558 84.6791C208.973 83.9331 209.952 84.2988 212.791 86.2643C216.995 89.1741 217.439 90.127 216.326 93.85C214.852 98.778 214.565 98.9672 209.294 98.4739ZM202.377 92.2004C203.379 87.5669 209.855 73.125 210.259 74.6241C210.469 75.4078 203.837 92.4439 202.187 95.3574C201.749 96.1314 201.834 94.7104 202.377 92.2004ZM189.221 100.397C188.209 101.049 185.499 103.242 183.198 105.272C180.897 107.301 178.592 108.876 178.076 108.771C175.628 108.272 177.597 93.7368 181.743 81.7028C184.447 73.8533 191.46 60.0266 195.306 54.961C199.256 49.7601 198.799 52.0746 193.631 63.4481C188.309 75.1589 187.897 76.7902 189.891 78.275C190.765 78.9269 193.716 79.8904 196.448 80.4174C199.18 80.9444 201.445 81.4978 201.481 81.6484C201.517 81.7987 200.335 85.4242 198.856 89.7048L196.166 97.4882L193.613 98.3507C192.21 98.8253 190.233 99.746 189.221 100.397ZM27.589 10.7836C25.732 12.6704 23.4698 15.5035 22.5619 17.0794C21.6536 18.656 20.3144 20.1057 19.5855 20.3017C12.588 22.1836 13.9108 4.52726 22.0181 -12.1482C27.4802 -23.3851 31.5287 -26.4854 30.5571 -18.6885C29.4507 -9.80728 29.4706 -5.16016 30.6379 0.0630441C31.3228 3.13149 31.677 6.02716 31.4246 6.49771C31.1717 6.96895 29.4456 8.89753 27.589 10.7836ZM0.558367 2.45023C-0.0268951 2.92501 -0.738953 3.17929 -1.02483 3.01459C-2.3716 2.23869 0.153574 -8.70526 2.72914 -13.2551C3.75778 -15.0713 4.31023 -15.3774 5.41243 -14.7424C6.27852 -14.2435 6.59426 -13.272 6.251 -12.1594C5.94883 -11.1781 5.05224 -8.23025 4.25819 -5.60787C2.54109 0.0600315 1.96937 1.30511 0.558367 2.45023ZM-13.3781 5.7121C-17.8682 9.26811 -25.72 13.859 -28.6665 14.6515C-30.8897 15.2494 -33.6872 14.3041 -34.2594 12.7621C-34.7008 11.5745 -35.0797 11.6604 -36.4887 13.2668C-38.9075 16.0236 -39.5654 15.1211 -38.978 9.84757C-37.7754 -0.9633 -31.79 -18.1594 -25.3133 -29.411L-21.1782 -36.5949L-15.0519 -33.0542C-5.97681 -27.81 -0.0909466 -21.4315 0.190072 -16.5379C0.498114 -11.1694 -6.45166 0.227789 -13.3781 5.7121ZM-60.9653 8.13515C-61.81 6.56873 -60.9702 -1.46277 -59.2125 -8.62668C-56.4233 -19.9916 -55.8932 -18.9255 -58.2016 -6.59393C-59.3722 -0.338718 -60.3234 5.62298 -60.3148 6.65455C-60.2947 8.99285 -60.3884 9.20577 -60.9653 8.13515Z" fill="white"/>
<path fill-rule="evenodd" clip-rule="evenodd" d="M-3.97612 -392.75C88.4831 -439.134 206.088 -442.312 298.638 -401.991C389.102 -362.578 417.284 -260.775 474.384 -184.341C536.098 -101.729 656.866 -39.1533 646.15 63.1956C635.424 165.648 505.626 215.406 425.006 287.295C355.824 348.984 301.737 437.634 208.856 453.126C117.708 468.329 36.1899 410.451 -40.4013 364.922C-103.977 327.129 -143.986 269.636 -191.621 215.063C-248.15 150.301 -350.966 101.491 -344.626 16.3865C-338.296 -68.5883 -219.589 -102.368 -162.902 -170.451C-102.845 -242.582 -89.776 -349.707 -3.97612 -392.75Z" fill="url(#paint6_radial)"/>
<defs>
<radialGradient id="paint0_radial" cx="0" cy="0" r="1" gradientUnits="userSpaceOnUse" gradientTransform="translate(1098.12 807.901) rotate(68.4203) scale(446.925 487.824)">
<stop stop-color="#E527AF"/>
<stop offset="0.796336" stop-color="#1E1E22" stop-opacity="0"/>
</radialGradient>
<radialGradient id="paint1_radial" cx="0" cy="0" r="1" gradientUnits="userSpaceOnUse" gradientTransform="translate(1260.12 385.901) rotate(68.4203) scale(446.925 487.824)">
<stop stop-color="#E5A631" stop-opacity="0.67"/>
<stop offset="0.796336" stop-color="#1E1E22" stop-opacity="0"/>
</radialGradient>
<radialGradient id="paint2_radial" cx="0" cy="0" r="1" gradientUnits="userSpaceOnUse" gradientTransform="translate(327.123 657.901) rotate(68.4203) scale(446.925 487.824)">
<stop stop-color="#2CD9FF"/>
<stop offset="0.796336" stop-color="#1E1E22" stop-opacity="0"/>
</radialGradient>
<radialGradient id="paint3_radial" cx="0" cy="0" r="1" gradientUnits="userSpaceOnUse" gradientTransform="translate(284.123 724.901) rotate(68.4203) scale(446.925 487.824)">
<stop stop-color="#2CD9FF"/>
<stop offset="0.796336" stop-color="#1E1E22" stop-opacity="0"/>
</radialGradient>
<radialGradient id="paint4_radial" cx="0" cy="0" r="1" gradientUnits="userSpaceOnUse" gradientTransform="translate(878.123 20.9014) rotate(68.4203) scale(446.925 487.824)">
<stop stop-color="#2CD9FF"/>
<stop offset="0.796336" stop-color="#1E1E22" stop-opacity="0"/>
</radialGradient>
<radialGradient id="paint5_radial" cx="0" cy="0" r="1" gradientUnits="userSpaceOnUse" gradientTransform="translate(145.123 422.901) rotate(68.4203) scale(446.925 487.824)">
<stop stop-color="#27E595"/>
<stop offset="0.796336" stop-color="#1E1E22" stop-opacity="0"/>
</radialGradient>
<radialGradient id="paint6_radial" cx="0" cy="0" r="1" gradientUnits="userSpaceOnUse" gradientTransform="translate(145.123 15.9014) rotate(68.4203) scale(446.925 487.824)">
<stop stop-color="#E5A631" stop-opacity="0.67"/>
<stop offset="0.796336" stop-color="#1E1E22" stop-opacity="0"/>
</radialGradient>
</defs>
</svg>
