<svg width="52" height="52" viewBox="0 0 52 52" fill="none" xmlns="http://www.w3.org/2000/svg">
<circle cx="25.9126" cy="25.9126" r="25.9126" fill="#27E595"/>
<path fill-rule="evenodd" clip-rule="evenodd" d="M23.5188 10.9526C20.6 12.3067 20.0914 16.5632 22.5965 18.6721C23.4462 19.3876 23.3578 19.5313 21.8685 19.8562C19.7098 20.3271 19.2985 21.2196 20.918 21.9185C21.7522 22.2783 21.9235 22.4485 22.1173 23.1093C22.4006 24.0749 22.1117 26.6563 21.4125 29.4041C20.6832 32.2716 20.1761 33.5371 19.7563 33.5371C19.5608 33.5371 19.233 33.8296 19.025 34.1892C18.7553 34.6562 18.4106 34.9143 17.8109 35.0978C15.9762 35.6591 15.2845 37.3199 16.4085 38.4639C16.7015 38.7621 17.1158 39.1114 17.329 39.2403C17.6599 39.4402 17.6741 39.5013 17.4258 39.6589C17.266 39.7602 16.9608 39.9761 16.7476 40.1388C16.3688 40.4277 16.3727 40.4392 16.916 40.6512C17.9039 41.0363 20.9097 41.2487 25.3705 41.2487C29.8314 41.2487 32.8372 41.0363 33.825 40.6512C34.3684 40.4392 34.3722 40.4277 33.9934 40.1388C33.7803 39.9761 33.4751 39.7602 33.3152 39.6589C33.0627 39.4985 33.0691 39.4471 33.3648 39.266C35.5097 37.9523 35.3967 36.1101 33.1143 35.1868C32.3911 34.8943 31.9425 34.5652 31.6988 34.1478C31.5025 33.812 31.186 33.5371 30.9957 33.5371C30.5654 33.5371 30.0399 32.1556 29.2638 28.9851C28.5796 26.1896 28.3672 24.176 28.6451 23.1222C28.8257 22.437 28.9753 22.2842 29.824 21.9181C31.4715 21.2072 31.0392 20.351 28.7666 19.8238C28.1376 19.6779 27.5948 19.4727 27.5605 19.3678C27.5262 19.2629 27.7464 19.0274 28.0496 18.8445C28.8123 18.3844 29.575 17.1904 29.8168 16.0781C30.241 14.1277 29.2611 11.9784 27.52 11.0397C26.4405 10.4578 24.6687 10.4192 23.5188 10.9526ZM26.1456 11.9647C26.1456 12.2851 26.0164 12.3605 25.4674 12.3605C24.9185 12.3605 24.7892 12.2851 24.7892 11.9647C24.7892 11.6443 24.9185 11.5689 25.4674 11.5689C26.0164 11.5689 26.1456 11.6443 26.1456 11.9647ZM26.003 36.0513C25.7647 36.0982 25.3287 36.0994 25.0341 36.0541C24.7396 36.0086 24.9345 35.9702 25.4674 35.9686C26.0003 35.9672 26.2413 36.0044 26.003 36.0513Z" fill="black"/>
</svg>
