<svg width="52" height="52" viewBox="0 0 52 52" fill="none" xmlns="http://www.w3.org/2000/svg">
<circle cx="25.9126" cy="26.044" r="25.9126" fill="#2AD9FF"/>
<path fill-rule="evenodd" clip-rule="evenodd" d="M23.5188 11.0839C20.6 12.438 20.0914 16.6945 22.5965 18.8034C23.4462 19.5189 23.3578 19.6626 21.8685 19.9876C19.7098 20.4584 19.2985 21.351 20.918 22.0498C21.7522 22.4096 21.9235 22.5798 22.1173 23.2406C22.4006 24.2062 22.1117 26.7876 21.4125 29.5354C20.6832 32.4029 20.1761 33.6684 19.7563 33.6684C19.5608 33.6684 19.233 33.9609 19.025 34.3205C18.7553 34.7876 18.4106 35.0456 17.8109 35.2291C15.9762 35.7904 15.2845 37.4513 16.4085 38.5952C16.7015 38.8934 17.1158 39.2427 17.329 39.3716C17.6599 39.5715 17.6741 39.6326 17.4258 39.7902C17.266 39.8915 16.9608 40.1074 16.7476 40.2701C16.3688 40.5591 16.3727 40.5705 16.916 40.7825C17.9039 41.1676 20.9097 41.38 25.3705 41.38C29.8314 41.38 32.8372 41.1676 33.825 40.7825C34.3684 40.5705 34.3722 40.5591 33.9934 40.2701C33.7803 40.1074 33.4751 39.8915 33.3152 39.7902C33.0627 39.6299 33.0691 39.5784 33.3648 39.3973C35.5097 38.0836 35.3967 36.2414 33.1143 35.3182C32.3911 35.0257 31.9425 34.6965 31.6988 34.2791C31.5025 33.9433 31.186 33.6684 30.9957 33.6684C30.5654 33.6684 30.0399 32.287 29.2638 29.1164C28.5796 26.3209 28.3672 24.3074 28.6451 23.2535C28.8257 22.5683 28.9753 22.4155 29.824 22.0494C31.4715 21.3385 31.0392 20.4823 28.7666 19.9551C28.1376 19.8092 27.5948 19.604 27.5605 19.4991C27.5262 19.3942 27.7464 19.1587 28.0496 18.9758C28.8123 18.5157 29.575 17.3217 29.8168 16.2094C30.241 14.259 29.2611 12.1097 27.52 11.171C26.4405 10.5891 24.6687 10.5505 23.5188 11.0839ZM26.1456 12.096C26.1456 12.4165 26.0164 12.4919 25.4674 12.4919C24.9185 12.4919 24.7892 12.4165 24.7892 12.096C24.7892 11.7756 24.9185 11.7002 25.4674 11.7002C26.0164 11.7002 26.1456 11.7756 26.1456 12.096ZM26.003 36.1826C25.7647 36.2295 25.3287 36.2307 25.0341 36.1854C24.7396 36.1399 24.9345 36.1015 25.4674 36.0999C26.0003 36.0985 26.2413 36.1357 26.003 36.1826Z" fill="white"/>
</svg>
