<svg width="32" height="32" viewBox="0 0 32 32" fill="none" xmlns="http://www.w3.org/2000/svg">
<circle cx="16" cy="16" r="16" fill="#27E595"/>
<path fill-rule="evenodd" clip-rule="evenodd" d="M14.522 6.76244C12.7197 7.59855 12.4057 10.2268 13.9525 11.5289C14.4771 11.9707 14.4226 12.0594 13.503 12.2601C12.1701 12.5508 11.9161 13.1019 12.9161 13.5334C13.4312 13.7556 13.5369 13.8607 13.6566 14.2687C13.8315 14.8649 13.6531 16.4588 13.2214 18.1555C12.7711 19.9261 12.458 20.7074 12.1988 20.7074C12.0781 20.7074 11.8756 20.8881 11.7473 21.1101C11.5807 21.3985 11.3679 21.5578 10.9975 21.6711C9.86473 22.0177 9.43759 23.0432 10.1317 23.7495C10.3126 23.9337 10.5684 24.1494 10.7 24.2289C10.9043 24.3524 10.9131 24.3901 10.7598 24.4874C10.6611 24.55 10.4727 24.6833 10.341 24.7837C10.1071 24.9622 10.1095 24.9692 10.445 25.1001C11.055 25.3379 12.9109 25.469 15.6653 25.469C18.4197 25.469 20.2757 25.3379 20.8857 25.1001C21.2211 24.9692 21.2235 24.9622 20.9896 24.7837C20.858 24.6833 20.6696 24.55 20.5709 24.4874C20.415 24.3884 20.4189 24.3566 20.6015 24.2448C21.9259 23.4336 21.8561 22.2962 20.4468 21.7261C20.0003 21.5455 19.7233 21.3423 19.5728 21.0846C19.4516 20.8772 19.2562 20.7074 19.1387 20.7074C18.873 20.7074 18.5485 19.8545 18.0693 17.8968C17.6468 16.1707 17.5157 14.9274 17.6872 14.2767C17.7988 13.8536 17.8911 13.7593 18.4152 13.5332C19.4324 13.0942 19.1655 12.5656 17.7623 12.24C17.3739 12.15 17.0388 12.0232 17.0176 11.9585C16.9964 11.8937 17.1323 11.7483 17.3196 11.6354C17.7905 11.3513 18.2614 10.614 18.4108 9.92723C18.6727 8.72293 18.0676 7.39581 16.9926 6.81621C16.326 6.45693 15.232 6.4331 14.522 6.76244ZM16.1439 7.38738C16.1439 7.58523 16.0641 7.63178 15.7252 7.63178C15.3862 7.63178 15.3064 7.58523 15.3064 7.38738C15.3064 7.18953 15.3862 7.14298 15.7252 7.14298C16.0641 7.14298 16.1439 7.18953 16.1439 7.38738ZM16.0559 22.2599C15.9087 22.2889 15.6395 22.2896 15.4576 22.2616C15.2758 22.2335 15.3961 22.2098 15.7252 22.2088C16.0542 22.208 16.203 22.2309 16.0559 22.2599Z" fill="white"/>
</svg>
